<svg version="1" xmlns="http://www.w3.org/2000/svg" width="2566.667" height="685.333" viewBox="0 0 1925.000000 514.000000"><path d="M1920.2 3.4c-1.8 4.9-11.1 19.5-20.6 32.1-36.6 48.8-96.3 106.5-158.1 153-128.6 96.7-267.9 153.8-410.5 168.4-79.1 8.1-152.1 3.3-239-15.8-55.6-12.2-101.8-18.7-165.5-23.3-24.4-1.8-129.9-1.8-157 0-126.5 8.2-242.7 26.9-377 60.7-124.6 31.3-259.2 75.8-369.3 122C2 509.4-1.9 511.7.8 513.4c.5.3 9-2.9 18.8-7 115.5-48.9 260.4-96.5 388.9-127.9C534.9 347.6 646.7 329.9 766 322c26-1.8 113.9-2.4 141.5-1.1 68.4 3.3 121.9 10.3 184 24.1 83 18.4 157.2 23.6 233.5 16.5 167.9-15.8 330.4-89.6 475.9-216.2 30.5-26.5 75.4-73.4 97.6-101.8C1912 26.2 1925 5.6 1925 1.2c0-2.7-3.6-1.1-4.8 2.2z"/></svg>