<?xml version="1.0" standalone="no"?>
<!DOCTYPE svg PUBLIC "-//W3C//DTD SVG 20010904//EN"
 "http://www.w3.org/TR/2001/REC-SVG-20010904/DTD/svg10.dtd">
<svg version="1.0" xmlns="http://www.w3.org/2000/svg"
 width="1925.000000pt" height="514.000000pt" viewBox="0 0 1925.000000 514.000000"
 preserveAspectRatio="xMidYMid meet">
<metadata>
Created by potrace 1.15, written by Peter Selinger 2001-2017
</metadata>
<g transform="translate(0.000000,514.000000) scale(0.100000,-0.100000)"
fill="#e74c3c" stroke="none">
<path d="M19202 5106 c-18 -49 -111 -195 -206 -321 -366 -488 -963 -1065
-1581 -1530 -1286 -967 -2679 -1538 -4105 -1684 -791 -81 -1521 -33 -2390 158
-556 122 -1018 187 -1655 233 -244 18 -1299 18 -1570 0 -1265 -82 -2427 -269
-3770 -607 -1246 -313 -2592 -758 -3693 -1220 -212 -89 -251 -112 -224 -129 5
-3 90 29 188 70 1155 489 2604 965 3889 1279 1264 309 2382 486 3575 565 260
18 1139 24 1415 11 684 -33 1219 -103 1840 -241 830 -184 1572 -236 2335 -165
1679 158 3304 896 4759 2162 305 265 754 734 976 1018 135 173 265 379 265
423 0 27 -36 11 -48 -22z"/>
</g>
</svg>
